<svg width="20" height="14" viewBox="0 0 20 14" fill="none" xmlns="http://www.w3.org/2000/svg">
<path fill-rule="evenodd" clip-rule="evenodd" d="M16 2H4C2.89543 2 2 2.89543 2 4V10C2 11.1046 2.89543 12 4 12H16C17.1046 12 18 11.1046 18 10V4C18 2.89543 17.1046 2 16 2ZM4 0C1.79086 0 0 1.79086 0 4V10C0 12.2091 1.79086 14 4 14H16C18.2091 14 20 12.2091 20 10V4C20 1.79086 18.2091 0 16 0H4Z" fill="#777C85"/>
<path d="M0 5C0 4.44772 0.447715 4 1 4H19C19.5523 4 20 4.44772 20 5C20 5.55228 19.5523 6 19 6H1C0.447716 6 0 5.55228 0 5Z" fill="#777C85"/>
</svg>
