<svg width="20" height="17" viewBox="0 0 20 17" fill="none" xmlns="http://www.w3.org/2000/svg">
<path fill-rule="evenodd" clip-rule="evenodd" d="M10 15C10.5523 15 11 14.5523 11 14C11 13.4477 10.5523 13 10 13C9.44772 13 9 13.4477 9 14C9 14.5523 9.44772 15 10 15ZM10 17C11.6569 17 13 15.6569 13 14C13 12.3431 11.6569 11 10 11C8.34315 11 7 12.3431 7 14C7 15.6569 8.34315 17 10 17Z" fill="#777C85"/>
<path fill-rule="evenodd" clip-rule="evenodd" d="M7.27735 6.58397C7.50711 6.73715 7.5692 7.04759 7.41603 7.27735L5.41603 10.2774C5.26285 10.5071 4.95241 10.5692 4.72265 10.416C4.49289 10.2628 4.4308 9.95241 4.58397 9.72265L6.58397 6.72265C6.73715 6.49289 7.04759 6.4308 7.27735 6.58397ZM12.7227 6.58397C12.9524 6.4308 13.2628 6.49289 13.416 6.72265L15.416 9.72265C15.5692 9.95241 15.5071 10.2628 15.2774 10.416C15.0476 10.5692 14.7372 10.5071 14.584 10.2774L12.584 7.27735C12.4308 7.04759 12.4929 6.73715 12.7227 6.58397Z" fill="#777C85"/>
<path fill-rule="evenodd" clip-rule="evenodd" d="M10 7C10.2761 7 10.5 7.22386 10.5 7.5V9.5C10.5 9.77614 10.2761 10 10 10C9.72386 10 9.5 9.77614 9.5 9.5V7.5C9.5 7.22386 9.72386 7 10 7Z" fill="#777C85"/>
<path fill-rule="evenodd" clip-rule="evenodd" d="M10 4C10.5523 4 11 3.55228 11 3C11 2.44772 10.5523 2 10 2C9.44772 2 9 2.44772 9 3C9 3.55228 9.44772 4 10 4ZM10 6C11.6569 6 13 4.65685 13 3C13 1.34315 11.6569 0 10 0C8.34315 0 7 1.34315 7 3C7 4.65685 8.34315 6 10 6Z" fill="#777C85"/>
<path fill-rule="evenodd" clip-rule="evenodd" d="M17 15C17.5523 15 18 14.5523 18 14C18 13.4477 17.5523 13 17 13C16.4477 13 16 13.4477 16 14C16 14.5523 16.4477 15 17 15ZM17 17C18.6569 17 20 15.6569 20 14C20 12.3431 18.6569 11 17 11C15.3431 11 14 12.3431 14 14C14 15.6569 15.3431 17 17 17Z" fill="#777C85"/>
<path fill-rule="evenodd" clip-rule="evenodd" d="M3 15C3.55228 15 4 14.5523 4 14C4 13.4477 3.55228 13 3 13C2.44772 13 2 13.4477 2 14C2 14.5523 2.44772 15 3 15ZM3 17C4.65685 17 6 15.6569 6 14C6 12.3431 4.65685 11 3 11C1.34315 11 0 12.3431 0 14C0 15.6569 1.34315 17 3 17Z" fill="#777C85"/>
</svg>
