<svg width="19" height="12" viewBox="0 0 19 12" fill="none" xmlns="http://www.w3.org/2000/svg">
<path d="M1 6C1 5.44772 1.44772 5 2 5H18C18.5523 5 19 5.44772 19 6C19 6.55228 18.5523 7 18 7H2C1.44772 7 1 6.55228 1 6Z" fill="#777C85"/>
<path fill-rule="evenodd" clip-rule="evenodd" d="M6.70711 0.292893C7.09763 0.683417 7.09763 1.31658 6.70711 1.70711L2.41421 6L6.70711 10.2929C7.09763 10.6834 7.09763 11.3166 6.70711 11.7071C6.31658 12.0976 5.68342 12.0976 5.29289 11.7071L0.292893 6.70711C-0.0976311 6.31658 -0.0976311 5.68342 0.292893 5.29289L5.29289 0.292893C5.68342 -0.0976311 6.31658 -0.0976311 6.70711 0.292893Z" fill="#777C85"/>
</svg>
