<svg width="20" height="20" viewBox="0 0 20 20" fill="none" xmlns="http://www.w3.org/2000/svg">
<path fill-rule="evenodd" clip-rule="evenodd" d="M10 12C5.58172 12 2 15.5817 2 20H0C0 14.4772 4.47715 10 10 10C15.5228 10 20 14.4772 20 20H18C18 15.5817 14.4183 12 10 12Z" fill="#777C85"/>
<path fill-rule="evenodd" clip-rule="evenodd" d="M10 6C11.1046 6 12 5.10457 12 4C12 2.89543 11.1046 2 10 2C8.89543 2 8 2.89543 8 4C8 5.10457 8.89543 6 10 6ZM10 8C12.2091 8 14 6.20914 14 4C14 1.79086 12.2091 0 10 0C7.79086 0 6 1.79086 6 4C6 6.20914 7.79086 8 10 8Z" fill="#777C85"/>
</svg>
