<svg width="20" height="18" viewBox="0 0 20 18" fill="none" xmlns="http://www.w3.org/2000/svg">
<path fill-rule="evenodd" clip-rule="evenodd" d="M4 6C5.10457 6 6 5.10457 6 4C6 2.89543 5.10457 2 4 2C2.89543 2 2 2.89543 2 4C2 5.10457 2.89543 6 4 6ZM4 8C6.20914 8 8 6.20914 8 4C8 1.79086 6.20914 0 4 0C1.79086 0 0 1.79086 0 4C0 6.20914 1.79086 8 4 8Z" fill="#777C85"/>
<path fill-rule="evenodd" clip-rule="evenodd" d="M16 16C17.1046 16 18 15.1046 18 14C18 12.8954 17.1046 12 16 12C14.8954 12 14 12.8954 14 14C14 15.1046 14.8954 16 16 16ZM16 18C18.2091 18 20 16.2091 20 14C20 11.7909 18.2091 10 16 10C13.7909 10 12 11.7909 12 14C12 16.2091 13.7909 18 16 18Z" fill="#777C85"/>
<path d="M7 4C7 3.44772 7.44772 3 8 3H19C19.5523 3 20 3.44772 20 4C20 4.55228 19.5523 5 19 5H8C7.44772 5 7 4.55228 7 4Z" fill="#777C85"/>
<path d="M0 14C0 13.4477 0.447715 13 1 13H12C12.5523 13 13 13.4477 13 14C13 14.5523 12.5523 15 12 15H1C0.447715 15 0 14.5523 0 14Z" fill="#777C85"/>
</svg>
