<svg width="20" height="14" viewBox="0 0 20 14" fill="none" xmlns="http://www.w3.org/2000/svg">
<path d="M18.0874 6.30655C18.2582 6.59238 18.3764 6.82964 18.4487 7C18.3764 7.17037 18.2582 7.40762 18.0874 7.69345C17.7312 8.28955 17.1836 9.0348 16.4477 9.75915C14.9785 11.2054 12.8366 12.5 10 12.5C7.16344 12.5 5.0215 11.2054 3.55228 9.75915C2.81643 9.0348 2.26883 8.28955 1.91262 7.69345C1.74181 7.40762 1.62356 7.17037 1.55131 7C1.62356 6.82963 1.74181 6.59238 1.91262 6.30655C2.26883 5.71045 2.81643 4.9652 3.55228 4.24085C5.0215 2.79458 7.16344 1.5 10 1.5C12.8366 1.5 14.9785 2.79458 16.4477 4.24085C17.1836 4.9652 17.7312 5.71045 18.0874 6.30655Z" stroke="#777C85" stroke-width="3"/>
<circle r="3" transform="matrix(1 0 0 -1 10 7)" fill="#777C85"/>
</svg>
