<svg width="16" height="16" viewBox="0 0 16 16" fill="none" xmlns="http://www.w3.org/2000/svg">
<circle cx="8" cy="8" r="8" fill="black"/>
<rect x="7.16663" y="3" width="1.66667" height="2.5" fill="white"/>
<rect x="7.16663" y="10.5" width="1.66667" height="2.5" fill="white"/>
<path d="M8 5.77898C8.6795 5.77898 9.25295 6.15953 9.25295 6.61165H10.5C10.5 5.53982 9.37863 4.66699 8 4.66699C6.62137 4.66699 5.5 5.53982 5.5 6.61165C5.5 7.86504 6.5978 8.18275 7.39709 8.40794C7.52671 8.4446 7.66222 8.483 7.78987 8.52489C7.91752 8.56679 8.08641 8.61392 8.22781 8.65407C9.12529 8.91069 9.25098 9.00321 9.25098 9.389C9.25098 9.84112 8.67753 10.2234 7.99804 10.2234C7.31854 10.2234 6.74705 9.84112 6.74705 9.389H5.5C5.5 10.4626 6.62137 11.3337 8 11.3337C9.37863 11.3337 10.5 10.4608 10.5 9.389C10.5 8.13736 9.40809 7.8179 8.61273 7.59621C8.47918 7.5578 8.34368 7.5194 8.20817 7.4775C8.07266 7.4356 7.91752 7.39022 7.78005 7.35007C6.88256 7.09346 6.74902 7.00094 6.74902 6.61165C6.74902 6.15953 7.32247 5.77898 8 5.77898Z" fill="white"/>
</svg>
