<svg width="14" height="14" viewBox="0 0 14 14" fill="none" xmlns="http://www.w3.org/2000/svg">
<path fill-rule="evenodd" clip-rule="evenodd" d="M7 12C9.76142 12 12 9.76142 12 7C12 4.23858 9.76142 2 7 2C4.23858 2 2 4.23858 2 7C2 9.76142 4.23858 12 7 12ZM7 14C10.866 14 14 10.866 14 7C14 3.13401 10.866 0 7 0C3.13401 0 0 3.13401 0 7C0 10.866 3.13401 14 7 14Z" fill="white"/>
<path d="M6.5 3.5C6.5 3.22386 6.72386 3 7 3C7.27614 3 7.5 3.22386 7.5 3.5V7.5C7.5 7.77614 7.27614 8 7 8C6.72386 8 6.5 7.77614 6.5 7.5V3.5Z" fill="white"/>
<path d="M6.85355 7.35355C6.65829 7.54882 6.65829 7.8654 6.85355 8.06066L8.26777 9.47487C8.46303 9.67014 8.77961 9.67014 8.97487 9.47487C9.17014 9.27961 9.17014 8.96303 8.97487 8.76777L7.56066 7.35355C7.3654 7.15829 7.04882 7.15829 6.85355 7.35355Z" fill="white"/>
</svg>
