<svg width="16" height="16" viewBox="0 0 16 16" fill="none" xmlns="http://www.w3.org/2000/svg">
<path d="M16 8C16 12.4183 12.4183 16 8 16C3.58172 16 0 12.4183 0 8C0 3.58172 3.58172 0 8 0C12.4183 0 16 3.58172 16 8Z" fill="#F50537"/>
<path fill-rule="evenodd" clip-rule="evenodd" d="M10.6464 4.64645C10.8417 4.45118 11.1583 4.45118 11.3536 4.64645C11.5488 4.84171 11.5488 5.15829 11.3536 5.35355L11 5L10.6464 4.64645ZM5.35355 11.3536C5.15829 11.5488 4.84171 11.5488 4.64645 11.3536C4.45118 11.1583 4.45118 10.8417 4.64645 10.6464L10.6464 4.64645C10.6464 4.64645 10.6464 4.64645 11 5L11.3536 5.35355L5.35355 11.3536Z" fill="white"/>
<path fill-rule="evenodd" clip-rule="evenodd" d="M5.35355 4.64645C5.15829 4.45118 4.84171 4.45118 4.64645 4.64645C4.45118 4.84171 4.45118 5.15829 4.64645 5.35355L5 5L5.35355 4.64645ZM10.6464 11.3536C10.8417 11.5488 11.1583 11.5488 11.3536 11.3536C11.5488 11.1583 11.5488 10.8417 11.3536 10.6464L5.35355 4.64645C5.35355 4.64645 5.35355 4.64645 5 5L4.64645 5.35355L10.6464 11.3536Z" fill="white"/>
</svg>
