<svg width="32" height="32" viewBox="0 0 32 32" fill="none" xmlns="http://www.w3.org/2000/svg">
<path d="M32 16C32 24.8366 24.8366 32 16 32C7.16344 32 0 24.8366 0 16C0 7.16344 7.16344 0 16 0C24.8366 0 32 7.16344 32 16Z" fill="#0BCA1E"/>
<path fill-rule="evenodd" clip-rule="evenodd" d="M21.7071 12.2929C22.0976 12.6834 22.0976 13.3166 21.7071 13.7071L14.7071 20.7071C14.3166 21.0976 13.6834 21.0976 13.2929 20.7071L10.2929 17.7071C9.90237 17.3166 9.90237 16.6834 10.2929 16.2929C10.6834 15.9024 11.3166 15.9024 11.7071 16.2929L14 18.5858L20.2929 12.2929C20.6834 11.9024 21.3166 11.9024 21.7071 12.2929Z" fill="white"/>
</svg>
