<svg width="19" height="16" viewBox="0 0 19 16" fill="none" xmlns="http://www.w3.org/2000/svg">
<path d="M11 15C11 15.5523 10.5523 16 10 16C9.44772 16 9 15.5523 9 15C9 14.4477 9.44772 14 10 14C10.5523 14 11 14.4477 11 15Z" fill="white"/>
<path d="M6 15C6 15.5523 5.55228 16 5 16C4.44772 16 4 15.5523 4 15C4 14.4477 4.44772 14 5 14C5.55228 14 6 14.4477 6 15Z" fill="white"/>
<path fill-rule="evenodd" clip-rule="evenodd" d="M14.0602 0.658257C14.2039 0.263068 14.5795 0 15 0H18C18.5523 0 19 0.447715 19 1C19 1.55228 18.5523 2 18 2H15.7004L11.9398 12.3417C11.7961 12.7369 11.4205 13 11 13H4C3.59998 13 3.23844 12.7616 3.08086 12.3939L0.0808585 5.39392C-0.0515547 5.08496 -0.0198813 4.73013 0.165162 4.44951C0.350206 4.16888 0.66386 4 1 4H12.845L14.0602 0.658257ZM12.1178 6H2.51654L4.6594 11H10.2996L12.1178 6Z" fill="white"/>
</svg>
