<svg width="20" height="14" viewBox="0 0 20 14" fill="none" xmlns="http://www.w3.org/2000/svg">
<path fill-rule="evenodd" clip-rule="evenodd" d="M17.1019 6.32287C17.1032 6.32204 17.0976 6.34079 17.0812 6.38156C17.0924 6.34408 17.1006 6.3237 17.1019 6.32287ZM16.7537 7C16.4561 6.51625 16.0016 5.90653 15.3954 5.30983C14.1237 4.05792 12.3398 3 10 3C7.66022 3 5.87634 4.05792 4.60455 5.30983C3.99839 5.90653 3.54386 6.51624 3.24632 7C3.54386 7.48376 3.99839 8.09347 4.60455 8.69017C5.87634 9.94208 7.66022 11 10 11C12.3398 11 14.1237 9.94208 15.3954 8.69017C16.0016 8.09347 16.4561 7.48376 16.7537 7ZM2.89812 6.32287C2.89941 6.32369 2.90757 6.34409 2.91877 6.38162C2.90244 6.34082 2.89684 6.32205 2.89812 6.32287ZM2.89813 7.67713C2.89684 7.67795 2.90244 7.65919 2.91877 7.61838C2.90758 7.65591 2.89941 7.67631 2.89813 7.67713ZM17.0812 7.61844C17.0976 7.6592 17.1032 7.67794 17.1019 7.67713C17.1006 7.67631 17.0924 7.65593 17.0812 7.61844ZM10 14C16.6667 14 20 7.875 20 7C20 6.125 16.6667 0 10 0C3.33333 0 0 6.125 0 7C0 7.875 3.33333 14 10 14Z" fill="#A8B0BA"/>
<path d="M13 7C13 5.34315 11.6569 4 10 4C8.34315 4 7 5.34315 7 7C7 8.65685 8.34315 10 10 10C11.6569 10 13 8.65685 13 7Z" fill="#A8B0BA"/>
</svg>
