<svg width="16" height="16" viewBox="0 0 16 16" fill="none" xmlns="http://www.w3.org/2000/svg">
<path fill-rule="evenodd" clip-rule="evenodd" d="M2.05387 8C2.05387 9.17603 2.40261 10.3257 3.05597 11.3035C3.70934 12.2813 4.638 13.0435 5.72451 13.4935C6.81103 13.9436 8.0066 14.0613 9.16003 13.8319C10.3135 13.6024 11.373 13.0361 12.2045 12.2045C13.0361 11.373 13.6024 10.3135 13.8319 9.16003C14.0613 8.0066 13.9436 6.81103 13.4935 5.72451C13.0435 4.638 12.2813 3.70934 11.3035 3.05597C10.3257 2.40261 9.17603 2.05387 8 2.05387V0C8.67833 0 9.35014 0.086236 10 0.254032C10.866 0.47763 11.693 0.846054 12.4446 1.34824C13.7602 2.22729 14.7855 3.47672 15.391 4.93853C15.9965 6.40034 16.155 8.00887 15.8463 9.56072C15.5376 11.1126 14.7757 12.538 13.6569 13.6569C12.538 14.7757 11.1126 15.5376 9.56072 15.8463C8.00887 16.155 6.40034 15.9965 4.93853 15.391C3.47672 14.7855 2.22729 13.7602 1.34824 12.4446C0.846054 11.693 0.47763 10.866 0.254032 10C0.086236 9.35014 0 8.67833 0 8H2.05387Z" fill="#A8B0BA"/>
<path fill-rule="evenodd" clip-rule="evenodd" d="M10 8C10 7.60444 9.8827 7.21776 9.66294 6.88886C9.44318 6.55996 9.13082 6.30362 8.76537 6.15224C8.39992 6.00087 7.99778 5.96126 7.60982 6.03843C7.22186 6.1156 6.86549 6.30608 6.58579 6.58579C6.30608 6.86549 6.1156 7.22186 6.03843 7.60982C5.96126 7.99778 6.00087 8.39992 6.15224 8.76537C6.30362 9.13082 6.55996 9.44318 6.88886 9.66294C7.21776 9.8827 7.60444 10 8 10V12C7.29634 12 6.60674 11.8144 6 11.4641C5.92458 11.4206 5.85044 11.3745 5.77772 11.3259C5.11992 10.8864 4.60723 10.2616 4.30448 9.53073C4.00173 8.79983 3.92252 7.99556 4.07686 7.21964C4.2312 6.44371 4.61216 5.73098 5.17157 5.17157C5.73098 4.61216 6.44371 4.2312 7.21964 4.07686C7.99556 3.92252 8.79983 4.00173 9.53073 4.30448C10.2616 4.60723 10.8864 5.11992 11.3259 5.77772C11.3745 5.85044 11.4206 5.92458 11.4641 6C11.8144 6.60674 12 7.29634 12 8H10Z" fill="#A8B0BA"/>
</svg>
