<svg width="16" height="16" viewBox="0 0 16 16" fill="none" xmlns="http://www.w3.org/2000/svg">
<path d="M16 8C16 12.4183 12.4183 16 8 16C3.58172 16 0 12.4183 0 8C0 3.58172 3.58172 0 8 0C12.4183 0 16 3.58172 16 8Z" fill="black"/>
<path d="M7.16663 3H8.83329V5.5H7.16663V3Z" fill="white"/>
<path d="M7.16663 10.5H8.83329V13H7.16663V10.5Z" fill="white"/>
<path d="M7.99997 5.77864C8.67947 5.77864 9.25292 6.15919 9.25292 6.61132H10.5C10.5 5.53949 9.3786 4.66666 7.99997 4.66666C6.62134 4.66666 5.49997 5.53949 5.49997 6.61132C5.49997 7.8647 6.59777 8.18241 7.39706 8.4076C7.52668 8.44426 7.66218 8.48266 7.78984 8.52456C7.91749 8.56645 8.08638 8.61359 8.22778 8.65374C9.12526 8.91035 9.25095 9.00287 9.25095 9.38866C9.25095 9.84079 8.6775 10.2231 7.99801 10.2231C7.31851 10.2231 6.74702 9.84079 6.74702 9.38866H5.49997C5.49997 10.4622 6.62134 11.3333 7.99997 11.3333C9.3786 11.3333 10.5 10.4605 10.5 9.38866C10.5 8.13702 9.40806 7.81757 8.61269 7.59587C8.47915 7.55747 8.34365 7.51906 8.20814 7.47716C8.07263 7.43527 7.91749 7.38988 7.78002 7.34973C6.88253 7.09312 6.74899 7.0006 6.74899 6.61132C6.74899 6.15919 7.32244 5.77864 7.99997 5.77864Z" fill="white"/>
</svg>
