<svg width="20" height="8" viewBox="0 0 20 8" fill="none" xmlns="http://www.w3.org/2000/svg">
<path d="M9.25 5.25H11.25V7.75H9.25V5.25Z" fill="#777C85"/>
<path d="M0.25 2.25L2.25 0.25L3.75 1.75L1.75 3.75L0.25 2.25Z" fill="#777C85"/>
<path d="M4.25004 6.25001L5.25012 4.25L7.50136 4.86118L6.24997 7.25L4.25004 6.25001Z" fill="#777C85"/>
<path d="M16.25 6.25001L15.2499 4.25L12.9986 4.86118L14.25 7.25L16.25 6.25001Z" fill="#777C85"/>
<path d="M19.75 3.25L17.75 1.25L16.25 2.75L18.25 4.75L19.75 3.25Z" fill="#777C85"/>
<path d="M0.25 0.25C1.182 2.51172 4.08647 6.25001 9.98289 6.25001C15.8793 6.25001 18.7838 2.51172 19.7158 0.25H16.3045C15.3263 1.62403 13.3718 3.25001 9.98289 3.25001C6.59401 3.25001 4.63943 1.62403 3.66123 0.25H0.25Z" fill="#777C85"/>
</svg>
