<svg width="16" height="16" viewBox="0 0 16 16" fill="none" xmlns="http://www.w3.org/2000/svg">
<mask id="path-1-inside-1_1330_12371" fill="white">
<path d="M0 8C0 9.58225 0.469192 11.129 1.34824 12.4446C2.22729 13.7602 3.47672 14.7855 4.93853 15.391C6.40034 15.9965 8.00887 16.155 9.56072 15.8463C11.1126 15.5376 12.538 14.7757 13.6569 13.6569C14.7757 12.538 15.5376 11.1126 15.8463 9.56072C16.155 8.00887 15.9965 6.40034 15.391 4.93853C14.7855 3.47672 13.7602 2.22729 12.4446 1.34824C11.129 0.469192 9.58225 0 8 0V2.05387C9.17603 2.05387 10.3257 2.40261 11.3035 3.05597C12.2813 3.70934 13.0435 4.638 13.4935 5.72451C13.9436 6.81103 14.0613 8.0066 13.8319 9.16003C13.6024 10.3135 13.0361 11.373 12.2045 12.2045C11.373 13.0361 10.3135 13.6024 9.16003 13.8319C8.0066 14.0613 6.81103 13.9436 5.72451 13.4935C4.638 13.0435 3.70934 12.2813 3.05597 11.3035C2.40261 10.3257 2.05387 9.17603 2.05387 8H0Z"/>
</mask>
<path d="M0 8C0 9.58225 0.469192 11.129 1.34824 12.4446C2.22729 13.7602 3.47672 14.7855 4.93853 15.391C6.40034 15.9965 8.00887 16.155 9.56072 15.8463C11.1126 15.5376 12.538 14.7757 13.6569 13.6569C14.7757 12.538 15.5376 11.1126 15.8463 9.56072C16.155 8.00887 15.9965 6.40034 15.391 4.93853C14.7855 3.47672 13.7602 2.22729 12.4446 1.34824C11.129 0.469192 9.58225 0 8 0V2.05387C9.17603 2.05387 10.3257 2.40261 11.3035 3.05597C12.2813 3.70934 13.0435 4.638 13.4935 5.72451C13.9436 6.81103 14.0613 8.0066 13.8319 9.16003C13.6024 10.3135 13.0361 11.373 12.2045 12.2045C11.373 13.0361 10.3135 13.6024 9.16003 13.8319C8.0066 14.0613 6.81103 13.9436 5.72451 13.4935C4.638 13.0435 3.70934 12.2813 3.05597 11.3035C2.40261 10.3257 2.05387 9.17603 2.05387 8H0Z" stroke="#A8B0BA" stroke-width="4" mask="url(#path-1-inside-1_1330_12371)"/>
<mask id="path-2-inside-2_1330_12371" fill="white">
<path d="M12 8C12 7.20887 11.7654 6.43552 11.3259 5.77772C10.8864 5.11992 10.2616 4.60723 9.53073 4.30448C8.79983 4.00173 7.99556 3.92252 7.21964 4.07686C6.44371 4.2312 5.73098 4.61216 5.17157 5.17157C4.61216 5.73098 4.2312 6.44371 4.07686 7.21964C3.92252 7.99556 4.00173 8.79983 4.30448 9.53073C4.60723 10.2616 5.11992 10.8864 5.77772 11.3259C6.43552 11.7654 7.20887 12 8 12V10C7.60444 10 7.21776 9.8827 6.88886 9.66294C6.55996 9.44318 6.30362 9.13082 6.15224 8.76537C6.00087 8.39991 5.96126 7.99778 6.03843 7.60982C6.1156 7.22186 6.30608 6.86549 6.58579 6.58579C6.86549 6.30608 7.22186 6.1156 7.60982 6.03843C7.99778 5.96126 8.39991 6.00087 8.76537 6.15224C9.13082 6.30362 9.44318 6.55996 9.66294 6.88886C9.8827 7.21776 10 7.60444 10 8H12Z"/>
</mask>
<path d="M12 8C12 7.20887 11.7654 6.43552 11.3259 5.77772C10.8864 5.11992 10.2616 4.60723 9.53073 4.30448C8.79983 4.00173 7.99556 3.92252 7.21964 4.07686C6.44371 4.2312 5.73098 4.61216 5.17157 5.17157C4.61216 5.73098 4.2312 6.44371 4.07686 7.21964C3.92252 7.99556 4.00173 8.79983 4.30448 9.53073C4.60723 10.2616 5.11992 10.8864 5.77772 11.3259C6.43552 11.7654 7.20887 12 8 12V10C7.60444 10 7.21776 9.8827 6.88886 9.66294C6.55996 9.44318 6.30362 9.13082 6.15224 8.76537C6.00087 8.39991 5.96126 7.99778 6.03843 7.60982C6.1156 7.22186 6.30608 6.86549 6.58579 6.58579C6.86549 6.30608 7.22186 6.1156 7.60982 6.03843C7.99778 5.96126 8.39991 6.00087 8.76537 6.15224C9.13082 6.30362 9.44318 6.55996 9.66294 6.88886C9.8827 7.21776 10 7.60444 10 8H12Z" stroke="#A8B0BA" stroke-width="4" mask="url(#path-2-inside-2_1330_12371)"/>
</svg>
