<svg width="14" height="16" viewBox="0 0 14 16" fill="none" xmlns="http://www.w3.org/2000/svg">
<path fill-rule="evenodd" clip-rule="evenodd" d="M10 2H4C2.89543 2 2 2.89543 2 4V12C2 13.1046 2.89543 14 4 14H10C11.1046 14 12 13.1046 12 12V4C12 2.89543 11.1046 2 10 2ZM4 0C1.79086 0 0 1.79086 0 4V12C0 14.2091 1.79086 16 4 16H10C12.2091 16 14 14.2091 14 12V4C14 1.79086 12.2091 0 10 0H4Z" fill="#374DFB"/>
<path d="M3 4C3 3.44772 3.44772 3 4 3H10C10.5523 3 11 3.44772 11 4V6C11 6.55228 10.5523 7 10 7H4C3.44772 7 3 6.55228 3 6V4Z" fill="#374DFB"/>
<path d="M3 9C3 8.44772 3.44772 8 4 8C4.55228 8 5 8.44772 5 9C5 9.55228 4.55228 10 4 10C3.44772 10 3 9.55228 3 9Z" fill="#374DFB"/>
<path d="M3 12C3 11.4477 3.44772 11 4 11C4.55228 11 5 11.4477 5 12C5 12.5523 4.55228 13 4 13C3.44772 13 3 12.5523 3 12Z" fill="#374DFB"/>
<path d="M6 9C6 8.44772 6.44772 8 7 8C7.55228 8 8 8.44772 8 9C8 9.55228 7.55228 10 7 10C6.44772 10 6 9.55228 6 9Z" fill="#374DFB"/>
<path d="M6 12C6 11.4477 6.44772 11 7 11C7.55228 11 8 11.4477 8 12C8 12.5523 7.55228 13 7 13C6.44772 13 6 12.5523 6 12Z" fill="#374DFB"/>
<path d="M9 9C9 8.44772 9.44772 8 10 8C10.5523 8 11 8.44772 11 9C11 9.55228 10.5523 10 10 10C9.44772 10 9 9.55228 9 9Z" fill="#374DFB"/>
<path d="M9 12C9 11.4477 9.44772 11 10 11C10.5523 11 11 11.4477 11 12C11 12.5523 10.5523 13 10 13C9.44772 13 9 12.5523 9 12Z" fill="#374DFB"/>
</svg>
