<svg width="24" height="24" viewBox="0 0 24 24" fill="none" xmlns="http://www.w3.org/2000/svg">
<path d="M11.25 13.25H13.25V15.75H11.25V13.25Z" fill="#777C85"/>
<path d="M2.25 11.25L4.25 9.25L5.75 10.75L3.75 12.75L2.25 11.25Z" fill="#777C85"/>
<path d="M6.25004 14.25L7.25012 12.25L9.50136 12.8612L8.24997 15.25L6.25004 14.25Z" fill="#777C85"/>
<path d="M18.25 14.25L17.2499 12.25L14.9986 12.8612L16.25 15.25L18.25 14.25Z" fill="#777C85"/>
<path d="M21.75 11.25L19.75 9.25L18.25 10.75L20.25 12.75L21.75 11.25Z" fill="#777C85"/>
<path d="M2.25 8.25C3.182 10.5117 6.08647 14.25 11.9829 14.25C17.8793 14.25 20.7838 10.5117 21.7158 8.25H18.3045C17.3263 9.62403 15.3718 11.25 11.9829 11.25C8.59401 11.25 6.63943 9.62403 5.66123 8.25H2.25Z" fill="#777C85"/>
</svg>
